<svg width="30" height="20" viewBox="0 0 30 20" fill="none" xmlns="http://www.w3.org/2000/svg">
<rect width="30" height="20" fill="#B3B3B3"/>
<rect width="390" height="851" transform="translate(-336 -38)" fill="#F9F7F3"/>
<g filter="url(#filter0_d_131_4495)">
<path d="M-12 -10H41V31H-12V-10Z" fill="#F9F7F3"/>
</g>
<path d="M29.0645 16.5222L2.67959 0.277283C1.81976 -0.25211 0.751807 -0.000614021 0.29426 0.839016L0.207053 0.999047C-0.250494 1.83868 0.0756275 2.94849 0.935465 3.47788L27.3204 19.7228C28.1802 20.2522 29.2482 20.0007 29.7057 19.1611L29.7929 19.001C30.2505 18.1614 29.9243 17.0516 29.0645 16.5222Z" fill="#222525"/>
<path d="M0.935501 16.5221L27.3204 0.277193C28.1802 -0.2522 29.2482 -0.000703718 29.7057 0.838927L29.7929 0.998957C30.2505 1.83859 29.9244 2.9484 29.0645 3.47779L2.67963 19.7227C1.81979 20.2521 0.751842 20.0006 0.294295 19.161L0.207088 19.001C-0.250458 18.1613 0.0756646 17.0515 0.935501 16.5221Z" fill="#222525"/>
<defs>
<filter id="filter0_d_131_4495" x="-16" y="-10" width="61" height="49" filterUnits="userSpaceOnUse" color-interpolation-filters="sRGB">
<feFlood flood-opacity="0" result="BackgroundImageFix"/>
<feColorMatrix in="SourceAlpha" type="matrix" values="0 0 0 0 0 0 0 0 0 0 0 0 0 0 0 0 0 0 127 0" result="hardAlpha"/>
<feOffset dy="4"/>
<feGaussianBlur stdDeviation="2"/>
<feComposite in2="hardAlpha" operator="out"/>
<feColorMatrix type="matrix" values="0 0 0 0 0 0 0 0 0 0 0 0 0 0 0 0 0 0 0.25 0"/>
<feBlend mode="normal" in2="BackgroundImageFix" result="effect1_dropShadow_131_4495"/>
<feBlend mode="normal" in="SourceGraphic" in2="effect1_dropShadow_131_4495" result="shape"/>
</filter>
</defs>
</svg>
